<svg xmlns="http://www.w3.org/2000/svg" xmlns:xlink="http://www.w3.org/1999/xlink" width="114" height="24" version="1.1" viewBox="0 0 114 24"><title>Emarsys Logo</title><desc>Created with Sketch.</desc><g id="Design" fill="none" fill-rule="evenodd" stroke="none" stroke-width="1" opacity=".5"><g id="Main-Page" fill="#FFF" fill-rule="nonzero" transform="translate(-889.000000, -3261.000000)"><g id="Footer" transform="translate(0.000000, 3200.000000)"><g id="Group" transform="translate(64.000000, 48.000000)"><g id="Right" transform="translate(736.000000, 4.000000)"><g id="Item" transform="translate(0.000000, 9.000000)"><g id="Emarsys-Logo" transform="translate(89.000000, 0.000000)"><g id="Logotype" transform="translate(23.384615, 7.135135)"><path id="S" d="M80.0790889,10.1766811 L80.9004735,8.12662703 C81.8813282,9.03765405 83.5465077,9.58446486 85.2571573,9.58446486 C87.2416017,9.58446486 88.4507812,9.12878919 88.4507812,7.94435676 C88.4507812,6.71451892 87.0818068,6.80565405 84.8011573,6.57797838 C82.132388,6.25884324 80.5354137,5.80349189 80.5354137,3.82187027 C80.5354137,1.86295135 82.0865932,0.268572973 85.4396872,0.268572973 C87.2646615,0.268572973 88.8609863,0.587383784 90.1156359,1.1796 L89.385841,3.07008649 C88.4277214,2.43214054 87.0136017,2.15905946 85.4624222,2.15905946 C83.6832427,2.15905946 82.6793282,2.66014054 82.6793282,3.6623027 C82.6793282,4.61905946 84.0483026,4.59603243 86.238012,4.84673514 C88.2224564,5.07441081 90.5492256,5.37051892 90.5492256,7.83051892 C90.5492256,10.3132216 88.5875162,11.4749514 85.3480974,11.4749514 C83.2499778,11.4749514 81.3795333,10.9738703 80.0790889,10.1766811"/><path id="Y" d="M80.1744137,0.473416216 C77.4371145,6.64628108 74.8141402,12.2266054 72.5555761,15.9167676 L70.1606017,15.1649838 C71.1872513,13.7298486 72.0086359,12.2039027 72.4870462,11.2017405 L67.5148923,0.473416216 L70.2063966,0.473416216 L73.8329607,9.28822703 L77.5283795,0.473416216 L80.1744137,0.473416216 Z"/><path id="S" d="M56.269653,10.1766811 L57.090388,8.12662703 C58.0712427,9.03765405 59.736747,9.58446486 61.4470718,9.58446486 C63.4321658,9.58446486 64.6410205,9.12878919 64.6410205,7.94435676 C64.6410205,6.71451892 63.2720462,6.80565405 60.9913966,6.57797838 C58.3223026,6.25884324 56.725653,5.80349189 56.725653,3.82187027 C56.725653,1.86295135 58.2768325,0.268572973 61.6299265,0.268572973 C63.4545761,0.268572973 65.0515504,0.587383784 66.3062,1.1796 L65.5760803,3.07008649 C64.6176359,2.43214054 63.2035162,2.15905946 61.6526615,2.15905946 C59.8734821,2.15905946 58.8698923,2.66014054 58.8698923,3.6623027 C58.8698923,4.61905946 60.2385419,4.59603243 62.4279265,4.84673514 C64.4130205,5.07441081 66.739465,5.37051892 66.739465,7.83051892 C66.739465,10.3132216 64.7777556,11.4749514 61.5386615,11.4749514 C59.4402171,11.4749514 57.5694479,10.9738703 56.269653,10.1766811"/><path id="R" d="M55.5965658,0.678389189 L55.1633009,3.02455135 C54.8209761,2.79655135 54.3191812,2.63730811 53.6806513,2.63730811 C52.4260017,2.63730811 51.4678821,3.57103784 51.0576769,4.84660541 L51.0576769,11.2698486 L48.6169077,11.2698486 L48.6169077,0.473416216 L50.8975573,0.473416216 L51.0346171,2.93341622 C51.4909419,1.29330811 52.5172667,0.382281081 54.0681214,0.382281081 C54.6157111,0.382281081 55.254241,0.496118919 55.5965658,0.678389189"/><path id="A" d="M43.823906,8.40003243 L43.823906,6.87376216 C42.8430513,6.50954595 41.6111368,6.23614054 40.356812,6.23614054 C38.4178376,6.23614054 37.3229829,6.57765405 37.3229829,7.94435676 C37.3229829,9.26565405 38.6458376,9.62987027 40.1970171,9.62987027 C41.6569316,9.62987027 43.0483162,9.21992432 43.823906,8.40003243 Z M44.1204359,11.2699784 C44.0064359,10.9054378 43.9382308,10.4043568 43.8924359,9.94900541 C43.1853761,10.6777622 41.9079915,11.4976541 39.6724872,11.4976541 C37.3229829,11.4976541 34.9734786,10.5412216 34.9734786,8.08122162 C34.9734786,5.37051892 37.0949829,4.52792432 39.7861624,4.52792432 C41.3604017,4.52792432 42.7745214,4.91516757 43.823906,5.37051892 L43.846641,4.70987027 C43.8697009,2.77397838 42.4549316,2.20446486 40.470812,2.20446486 C38.7601624,2.20446486 37.4142479,2.68284324 36.6613932,3.34349189 L35.8633932,1.40727568 C37.026453,0.792356757 38.5091026,0.268248649 40.7670171,0.268248649 C43.823906,0.268248649 46.1279402,1.58954595 46.0594103,4.93787027 C46.0363504,6.00846486 46.0363504,7.30673514 46.0363504,8.37732973 C46.0363504,10.0628432 46.1045556,10.7916 46.2416154,11.2699784 L44.1204359,11.2699784 Z"/><path id="M" d="M33.1005009,5.53002162 L33.1005009,11.2699135 L30.5684667,11.2699135 L30.5684667,5.50731892 C30.5684667,3.50267027 29.724347,2.4324 27.6944325,2.4324 C26.3257829,2.4324 25.3907231,2.91045405 24.7288085,3.68494054 L24.7288085,11.2699135 L22.1743641,11.2699135 L22.1743641,5.14277838 C22.1743641,3.43456216 21.4445692,2.40937297 19.4598,2.40937297 C18.1824154,2.40937297 17.0193556,2.91045405 16.3350308,3.82180541 L16.3350308,11.2699135 L13.8029966,11.2699135 L13.8029966,0.473481081 L16.0612359,0.473481081 L16.2210308,2.06785946 C16.8822957,1.20223784 18.2054752,0.268508108 20.2811846,0.268508108 C21.9915094,0.268508108 23.3832188,1.04267027 23.9766034,2.27283243 C24.7973385,1.27067027 26.2345179,0.268508108 28.1504325,0.268508108 C31.4353214,0.268508108 33.1005009,2.04515676 33.1005009,5.53002162"/><path id="E" d="M9.51214701,4.73283243 C9.26108718,3.09272432 8.21202735,2.02245405 6.02231795,2.02245405 C4.06060855,2.02245405 2.80595897,3.02461622 2.46395897,4.73283243 L9.51214701,4.73283243 Z M11.9071214,6.12223784 L11.9071214,6.39564324 L2.37269402,6.39564324 C2.48669402,8.65067027 4.06060855,9.5616973 6.22758291,9.5616973 C8.09802735,9.5616973 9.37541197,8.94677838 10.1052068,8.05845405 L11.3140615,9.76667027 C10.2877368,10.6549946 8.59982222,11.4979135 6.09052308,11.4979135 C2.62342906,11.4979135 0.0917196581,9.63012973 0.0917196581,6.21337297 L0.0917196581,5.91726486 C0.0917196581,2.72850811 2.37269402,0.268508108 6.04505299,0.268508108 C10.4244718,0.268508108 11.9298564,3.25229189 11.9071214,6.12223784 Z"/></g><g id="Icon"><polygon id="Slate-4" points="16.428 18.44 4.164 23.856 4.164 20.175 16.428 14.759"/><polygon id="Slate-3" points="8.214 11.078 8.214 14.76 16.428 11.078 16.428 7.398"/><polygon id="Slate-2" points="8.214 11.078 8.214 14.76 0 11.078 0 7.398" opacity=".5"/><polygon id="Slate-1" points="16.428 3.717 0 11.078 0 7.397 16.428 .036"/></g></g></g></g></g></g></g></g></svg>