<svg xmlns="http://www.w3.org/2000/svg" xmlns:xlink="http://www.w3.org/1999/xlink" width="118" height="45" version="1.1" viewBox="0 0 118 45"><title>Norb.co Signature</title><desc>Created with Sketch.</desc><g id="Design" fill="none" fill-rule="evenodd" stroke="none" stroke-width="1" opacity=".5"><g id="Main-Page" transform="translate(-1099.000000, -3251.000000)"><g id="Footer" transform="translate(0.000000, 3200.000000)"><g id="Group" transform="translate(64.000000, 48.000000)"><g id="Right" transform="translate(980.000000, 4.000000)"><g id="Norb.co-Signature" transform="translate(55.000000, 0.000000)"><path id="Path-2" stroke="#FFF" d="M49.0322999,3.90367243 C29.9596346,6.05592408 23.407124,22.1945259 11.4565881,33.5222249 C8.1146063,36.6900296 -2.88147542,45.3684676 0.712985684,42.4159823 C9.55025782,35.1570592 17.7972244,27.3216094 27.1850695,20.6028721 C30.3340465,18.3491974 31.8646149,20.6792919 31.1262397,22.3816236 C28.5069197,28.4204934 25.0208802,34.1693911 22.6141215,40.2744591 C22.2600743,41.1725477 21.9258794,43.4262993 22.9560475,43.1064187 C38.1918796,38.3754949 59.397197,5.65460922 60.3517184,4.3483603 C63.3512401,0.243557671 52.5409605,11.3372553 49.0322999,15.1261899 C45.2096074,19.2542415 41.5362052,23.5163669 38.3966209,28.0572451 C36.7977712,30.369711 34.7984181,32.8635317 34.9053562,35.5584273 C34.9488144,36.6535969 37.5893067,35.8587687 38.6845289,35.3126787 C41.4921971,33.9127442 43.8089623,31.8632481 46.1708693,29.9413173 C52.6932468,24.6339288 58.8201708,18.9694348 65.3186103,13.6399963 C65.5604687,13.4416456 66.3710496,13.1609351 66.2904264,13.441057 C64.667578,19.0795771 61.3788882,17.9848292 68,18.0634703"/><path id="Path-3" stroke="#FFF" d="M57,44 C66.4803062,29.6868031 73.648435,14.0645677 85.4409186,1.0604092 C90.031088,-4.00139905 80.353998,13.1823601 79.2115595,19.506208 C78.1612968,25.3198272 76.7732283,31.5611599 78.9209473,37.151025 C79.6663726,39.0911424 82.9597896,34.8611569 84.5146806,33.3086339 C88.0169895,29.8116589 91.009472,25.9580476 93.9767963,22.1181053 C98.1514423,16.7157972 102.17806,11.2239446 105.927127,5.5993062 C106.845799,4.22104443 108.482482,2.68199176 107.943034,1.16488509 C106.991918,-1.50996631 103.619857,0.836413279 100.496824,4.02055942 C90.0982767,14.6225924 82.0300578,27.003169 70.2034298,36.4545191 C68.0676223,38.1613677 67.8704095,31.2271525 69.2227339,29.013514 C70.9992337,26.1055367 74.9808486,24.5566909 78.394294,23.0467798 C84.0465069,20.5465674 90.0451275,18.5630082 96.1743992,17.0916541 C102.148054,15.6576563 108.420135,15.3606839 114.517463,14.375281 C115.345681,14.2414308 117.395156,14.3378974 116.932954,13.7368172 C116.395131,13.0373931 114.971524,13.7058614 113.99081,13.6903835"/><path id="Spomman" fill="#FFF" d="M101,38 C92.163444,38 85,30.836556 85,22 C85,13.163444 92.163444,6 101,6 C109.836556,6 117,13.163444 117,22 C117,30.836556 109.836556,38 101,38 Z M109.875626,12.3057029 L109.87604,12.3018916 L109.260809,11.8154298 C109.210263,11.7721874 109.15802,11.7308714 109.104194,11.6915953 L109.056992,11.6542726 L109.05523,11.6567333 C108.63952,11.3679986 108.134556,11.1987666 107.590065,11.1987666 C106.169904,11.1987666 105.018636,12.3500344 105.018636,13.7701952 C105.018636,15.190356 106.169904,16.3416237 107.590065,16.3416237 C107.599151,16.3416237 107.608226,16.3415766 107.61729,16.3414826 C105.953319,18.0747252 103.612079,19.1537185 101.018636,19.1537185 C96.7590049,19.1537185 93.179737,16.2429376 92.1642289,12.3033486 C89.5291728,14.7051055 87.8757793,18.1639641 87.8757793,22.0087015 C87.8757793,29.2618142 93.7600369,35.1416237 101.018636,35.1416237 C108.277236,35.1416237 114.161494,29.2618142 114.161494,22.0087015 C114.161494,18.1652202 112.50918,14.7073656 109.875626,12.305703 Z M105.646858,28.2844809 C105.616254,30.7828784 103.581434,32.7987666 101.075779,32.7987666 C98.5701242,32.7987666 96.535305,30.7828784 96.5047006,28.2844809 L98.7907654,28.2844809 C98.8210923,29.5204413 99.8325175,30.5130523 101.075779,30.5130523 C102.319041,30.5130523 103.330466,29.5204413 103.360793,28.2844809 L105.646858,28.2844809 Z M92.5043508,20.7435387 C92.5043508,19.7957073 93.2652619,19.027338 94.2186365,19.027338 C95.1654103,19.027338 95.9329222,19.7944117 95.9329222,20.7435387 L95.9329222,25.3111373 C95.9329222,26.2589688 95.1720111,27.027338 94.2186365,27.027338 C93.2718626,27.027338 92.5043508,26.2602644 92.5043508,25.3111373 L92.5043508,20.7435387 Z M106.218636,20.7435387 C106.218636,19.7957073 106.979548,19.027338 107.932922,19.027338 C108.879696,19.027338 109.647208,19.7944117 109.647208,20.7435387 L109.647208,25.3111373 C109.647208,26.2589688 108.886297,27.027338 107.932922,27.027338 C106.986148,27.027338 106.218636,26.2602644 106.218636,25.3111373 L106.218636,20.7435387 Z"/></g></g></g></g></g></g></svg>