<svg xmlns="http://www.w3.org/2000/svg" xmlns:xlink="http://www.w3.org/1999/xlink" width="30" height="16" version="1.1" viewBox="0 0 30 16"><title>Car Icon</title><desc>Created with Sketch.</desc><g id="Design" fill="none" fill-rule="evenodd" stroke="none" stroke-width="1"><g id="Main-Page" transform="translate(-729.000000, -1932.000000)"><g id="Block---Process" transform="translate(0.000000, 1456.000000)"><g id="Content"><g id="Div" transform="translate(640.000000, 0.000000)"><g id="Number-Circle" transform="translate(80.000000, 460.000000)"><g id="Car-Icon" transform="translate(8.000000, 8.000000)"><rect id="Bounding-box" width="32" height="32" x="0" y="0"/><path id="Shape" fill="#FFF" fill-rule="nonzero" d="M21.3333333,8 L8,8 L1.33333333,16 L1.33333333,20 L4,20 C4,22.209139 5.790861,24 8,24 C10.209139,24 12,22.209139 12,20 L20,20 C20,22.209139 21.790861,24 24,24 C26.209139,24 28,22.209139 28,20 L30.6666667,20 L30.6666667,16 C30.6666667,14.52 29.48,13.3333333 28,13.3333333 L25.3333333,13.3333333 L21.3333333,8 Z M8.66666667,10 L14,10 L14,13.3333333 L6,13.3333333 L8.66666667,10 Z M16,10 L20.6666667,10 L23.28,13.3333333 L16,13.3333333 L16,10 Z M8,18 C9.1045695,18 10,18.8954305 10,20 C10,21.1045695 9.1045695,22 8,22 C6.8954305,22 6,21.1045695 6,20 C6,18.8954305 6.8954305,18 8,18 Z M24,18 C25.1045695,18 26,18.8954305 26,20 C26,21.1045695 25.1045695,22 24,22 C22.8954305,22 22,21.1045695 22,20 C22,18.8954305 22.8954305,18 24,18 Z"/></g></g></g></g></g></g></g></svg>