<?xml version="1.0" encoding="UTF-8"?>
<svg width="22px" height="22px" viewBox="0 0 22 22" version="1.1" xmlns="http://www.w3.org/2000/svg" xmlns:xlink="http://www.w3.org/1999/xlink">
    <!-- Generator: Sketch 49 (51002) - http://www.bohemiancoding.com/sketch -->
    <title>Facebook Icon</title>
    <desc>Created with Sketch.</desc>
    <defs></defs>
    <g id="Design" stroke="none" stroke-width="1" fill="none" fill-rule="evenodd">
        <g id="Main-Page" transform="translate(-1001.000000, -45.000000)">
            <g id="Header" transform="translate(24.000000, 16.000000)">
                <g id="Right" transform="translate(976.000000, 16.000000)">
                    <g id="Facebook-Icon" transform="translate(0.000000, 12.000000)">
                        <polygon id="Stroke-1" stroke-opacity="0.00784313771" stroke="#000000" stroke-width="1.33333335e-11" points="0 0 24.0000016 0 24.0000016 24.0000016 0 24.0000016"></polygon>
                        <path d="M21.1473214,1.71428571 C21.4598219,1.71428571 21.7276791,1.82589279 21.9508929,2.04910714 C22.1741065,2.27232149 22.2857143,2.54017863 22.2857143,2.85267857 L22.2857143,21.1473214 C22.2857143,21.4598219 22.1741065,21.7276791 21.9508929,21.9508929 C21.7276791,22.1741065 21.4598219,22.2857143 21.1473214,22.2857143 L15.9107143,22.2857143 L15.9107143,14.3169643 L18.5758929,14.3169643 L18.9776786,11.2098214 L15.9107143,11.2098214 L15.9107143,9.22767857 C15.9107143,8.72767884 16.0156255,8.35267884 16.2254464,8.10267857 C16.4352672,7.85267829 16.8437494,7.72767857 17.4508929,7.72767857 L19.0848214,7.71428571 L19.0848214,4.94196429 C18.5223214,4.86160714 17.7276779,4.82142857 16.7008929,4.82142857 C15.4866076,4.82142857 14.5156255,5.17857129 13.7879464,5.89285714 C13.0602681,6.60714299 12.6964286,7.6160717 12.6964286,8.91964286 L12.6964286,11.2098214 L10.0178571,11.2098214 L10.0178571,14.3169643 L12.6964286,14.3169643 L12.6964286,22.2857143 L2.85267857,22.2857143 C2.54017863,22.2857143 2.27232149,22.1741065 2.04910714,21.9508929 C1.82589279,21.7276791 1.71428571,21.4598219 1.71428571,21.1473214 L1.71428571,2.85267857 C1.71428571,2.54017863 1.82589279,2.27232149 2.04910714,2.04910714 C2.27232149,1.82589279 2.54017863,1.71428571 2.85267857,1.71428571 L21.1473214,1.71428571 Z" id="Facebook" fill="#FFFFFF"></path>
                    </g>
                </g>
            </g>
        </g>
    </g>
</svg>