<?xml version="1.0" encoding="UTF-8"?>
<svg width="28px" height="25px" viewBox="0 0 28 25" version="1.1" xmlns="http://www.w3.org/2000/svg" xmlns:xlink="http://www.w3.org/1999/xlink">
    <!-- Generator: Sketch 49 (51002) - http://www.bohemiancoding.com/sketch -->
    <title>Food Icon</title>
    <desc>Created with Sketch.</desc>
    <defs></defs>
    <g id="Design" stroke="none" stroke-width="1" fill="none" fill-rule="evenodd">
        <g id="Main-Page" transform="translate(-730.000000, -1642.000000)">
            <g id="Block---Process" transform="translate(0.000000, 1456.000000)">
                <g id="Content">
                    <g id="Div">
                        <g id="Number-Circle" transform="translate(720.000000, 176.000000)">
                            <g id="Food-Icon" transform="translate(8.000000, 8.000000)">
                                <rect id="Bounding-box" x="0" y="0" width="32" height="32"></rect>
                                <path d="M20.6666667,26.6666667 L18.6666667,9.33333333 L21.64,9.33333333 L20.1333333,3.28 L22.4533333,2.66666667 L24.12,9.33333333 L29.3333333,9.33333333 L27.3333333,26.6666667 L20.6666667,26.6666667 Z M6.66666667,13.3333333 L13.3333333,13.3333333 C15.5424723,13.3333333 17.3333333,15.1241943 17.3333333,17.3333333 L2.66666667,17.3333333 C2.66666667,15.1241943 4.45752767,13.3333333 6.66666667,13.3333333 Z M17.3333333,22.6666667 C17.3333333,24.8758057 15.5424723,26.6666667 13.3333333,26.6666667 L6.66666667,26.6666667 C4.45752767,26.6666667 2.66666667,24.8758057 2.66666667,22.6666667 L17.3333333,22.6666667 Z M4,18.6666667 L10.6666667,18.6666667 L12.6666667,20.6666667 L14.6666667,18.6666667 L16,18.6666667 C16.7363797,18.6666667 17.3333333,19.2636203 17.3333333,20 C17.3333333,20.7363797 16.7363797,21.3333333 16,21.3333333 L4,21.3333333 C3.26362033,21.3333333 2.66666667,20.7363797 2.66666667,20 C2.66666667,19.2636203 3.26362033,18.6666667 4,18.6666667 Z" id="Shape" fill="#FFFFFF" fill-rule="nonzero"></path>
                            </g>
                        </g>
                    </g>
                </g>
            </g>
        </g>
    </g>
</svg>